<mxfile host="app.diagrams.net" modified="2020-12-04T16:06:45.797Z" agent="5.0 (Macintosh; Intel Mac OS X 10_15_6) AppleWebKit/605.1.15 (KHTML, like Gecko) Version/13.1.2 Safari/605.1.15" etag="c0DaVNelpYJyGK3AkcF6" version="13.10.6" type="github" pages="3">
  <diagram id="IJtol5KpIU2qQ6XiAhYa" name="Milch-symp">
    <mxGraphModel dx="786" dy="539" grid="1" gridSize="10" guides="1" tooltips="1" connect="1" arrows="1" fold="1" page="1" pageScale="1" pageWidth="827" pageHeight="1169" math="0" shadow="0">
      <root>
        <mxCell id="0" />
        <mxCell id="1" parent="0" />
        <mxCell id="HYq-Q3gPw1h8oCt1VAOc-1" value="" style="endArrow=block;html=1;endFill=1;" edge="1" parent="1">
          <mxGeometry width="50" height="50" relative="1" as="geometry">
            <mxPoint x="160" y="440" as="sourcePoint" />
            <mxPoint x="560" y="440" as="targetPoint" />
          </mxGeometry>
        </mxCell>
        <mxCell id="HYq-Q3gPw1h8oCt1VAOc-2" value="" style="endArrow=block;html=1;endFill=1;" edge="1" parent="1">
          <mxGeometry width="50" height="50" relative="1" as="geometry">
            <mxPoint x="160" y="440" as="sourcePoint" />
            <mxPoint x="160" y="190" as="targetPoint" />
          </mxGeometry>
        </mxCell>
        <mxCell id="HYq-Q3gPw1h8oCt1VAOc-3" value="&lt;font color=&quot;#cc00cc&quot;&gt;Milchprodukte&lt;/font&gt;" style="text;html=1;align=center;verticalAlign=middle;resizable=0;points=[];autosize=1;" vertex="1" parent="1">
          <mxGeometry x="570" y="330" width="90" height="20" as="geometry" />
        </mxCell>
        <mxCell id="HYq-Q3gPw1h8oCt1VAOc-4" value="&lt;font color=&quot;#00cc00&quot;&gt;Symptome&lt;/font&gt;" style="text;html=1;align=center;verticalAlign=middle;resizable=0;points=[];autosize=1;" vertex="1" parent="1">
          <mxGeometry x="570" y="290" width="70" height="20" as="geometry" />
        </mxCell>
        <mxCell id="HYq-Q3gPw1h8oCt1VAOc-5" value="Einheit/Menge" style="text;html=1;align=center;verticalAlign=middle;resizable=0;points=[];autosize=1;" vertex="1" parent="1">
          <mxGeometry x="60" y="190" width="90" height="20" as="geometry" />
        </mxCell>
        <mxCell id="HYq-Q3gPw1h8oCt1VAOc-7" value="1.11." style="text;html=1;align=center;verticalAlign=middle;resizable=0;points=[];autosize=1;" vertex="1" parent="1">
          <mxGeometry x="180" y="450" width="40" height="20" as="geometry" />
        </mxCell>
        <mxCell id="HYq-Q3gPw1h8oCt1VAOc-8" value="2.11." style="text;html=1;align=center;verticalAlign=middle;resizable=0;points=[];autosize=1;" vertex="1" parent="1">
          <mxGeometry x="220" y="450" width="40" height="20" as="geometry" />
        </mxCell>
        <mxCell id="HYq-Q3gPw1h8oCt1VAOc-9" value="3.11." style="text;html=1;align=center;verticalAlign=middle;resizable=0;points=[];autosize=1;" vertex="1" parent="1">
          <mxGeometry x="260" y="450" width="40" height="20" as="geometry" />
        </mxCell>
        <mxCell id="HYq-Q3gPw1h8oCt1VAOc-10" value="6.11." style="text;html=1;align=center;verticalAlign=middle;resizable=0;points=[];autosize=1;" vertex="1" parent="1">
          <mxGeometry x="380" y="450" width="40" height="20" as="geometry" />
        </mxCell>
        <mxCell id="HYq-Q3gPw1h8oCt1VAOc-11" value="5.11." style="text;html=1;align=center;verticalAlign=middle;resizable=0;points=[];autosize=1;" vertex="1" parent="1">
          <mxGeometry x="340" y="450" width="40" height="20" as="geometry" />
        </mxCell>
        <mxCell id="HYq-Q3gPw1h8oCt1VAOc-12" value="4.11." style="text;html=1;align=center;verticalAlign=middle;resizable=0;points=[];autosize=1;" vertex="1" parent="1">
          <mxGeometry x="300" y="450" width="40" height="20" as="geometry" />
        </mxCell>
        <mxCell id="HYq-Q3gPw1h8oCt1VAOc-13" value="8.11." style="text;html=1;align=center;verticalAlign=middle;resizable=0;points=[];autosize=1;" vertex="1" parent="1">
          <mxGeometry x="460" y="450" width="40" height="20" as="geometry" />
        </mxCell>
        <mxCell id="HYq-Q3gPw1h8oCt1VAOc-14" value="7.11." style="text;html=1;align=center;verticalAlign=middle;resizable=0;points=[];autosize=1;" vertex="1" parent="1">
          <mxGeometry x="420" y="450" width="40" height="20" as="geometry" />
        </mxCell>
        <mxCell id="HYq-Q3gPw1h8oCt1VAOc-15" value="Zeit/Tag" style="text;html=1;align=center;verticalAlign=middle;resizable=0;points=[];autosize=1;" vertex="1" parent="1">
          <mxGeometry x="550" y="450" width="60" height="20" as="geometry" />
        </mxCell>
        <mxCell id="HYq-Q3gPw1h8oCt1VAOc-18" value="" style="curved=1;endArrow=none;html=1;endFill=0;strokeColor=#00CC00;" edge="1" parent="1">
          <mxGeometry width="50" height="50" relative="1" as="geometry">
            <mxPoint x="160" y="320" as="sourcePoint" />
            <mxPoint x="560" y="300" as="targetPoint" />
            <Array as="points">
              <mxPoint x="200" y="350" />
              <mxPoint x="240" y="380" />
              <mxPoint x="280" y="350" />
              <mxPoint x="320" y="260" />
              <mxPoint x="360" y="380" />
              <mxPoint x="400" y="423" />
              <mxPoint x="440" y="330" />
              <mxPoint x="480" y="390" />
              <mxPoint x="520" y="330" />
            </Array>
          </mxGeometry>
        </mxCell>
        <mxCell id="HYq-Q3gPw1h8oCt1VAOc-20" value="" style="curved=1;endArrow=none;html=1;endFill=0;strokeColor=#FF00FF;" edge="1" parent="1">
          <mxGeometry width="50" height="50" relative="1" as="geometry">
            <mxPoint x="160" y="300" as="sourcePoint" />
            <mxPoint x="560" y="340" as="targetPoint" />
            <Array as="points">
              <mxPoint x="200" y="370" />
              <mxPoint x="240" y="400" />
              <mxPoint x="280" y="370" />
              <mxPoint x="320" y="210" />
              <mxPoint x="360" y="400" />
              <mxPoint x="400" y="443" />
              <mxPoint x="440" y="270" />
              <mxPoint x="480" y="420" />
              <mxPoint x="520" y="350" />
            </Array>
          </mxGeometry>
        </mxCell>
        <mxCell id="HYq-Q3gPw1h8oCt1VAOc-21" value="wenig/schwach" style="text;html=1;align=center;verticalAlign=middle;resizable=0;points=[];autosize=1;" vertex="1" parent="1">
          <mxGeometry x="60" y="420" width="100" height="20" as="geometry" />
        </mxCell>
        <mxCell id="HYq-Q3gPw1h8oCt1VAOc-22" value="viel/stark" style="text;html=1;align=center;verticalAlign=middle;resizable=0;points=[];autosize=1;" vertex="1" parent="1">
          <mxGeometry x="90" y="220" width="60" height="20" as="geometry" />
        </mxCell>
        <mxCell id="HYq-Q3gPw1h8oCt1VAOc-23" value="" style="endArrow=classic;startArrow=classic;html=1;exitX=0.6;exitY=-0.25;exitDx=0;exitDy=0;exitPerimeter=0;strokeColor=#CCCCCC;" edge="1" parent="1" source="HYq-Q3gPw1h8oCt1VAOc-21">
          <mxGeometry width="50" height="50" relative="1" as="geometry">
            <mxPoint x="380" y="300" as="sourcePoint" />
            <mxPoint x="122" y="244" as="targetPoint" />
          </mxGeometry>
        </mxCell>
      </root>
    </mxGraphModel>
  </diagram>
  <diagram id="6VOgjrhh7VwgXETFq7gR" name="Mood-symp">
    <mxGraphModel dx="786" dy="539" grid="1" gridSize="10" guides="1" tooltips="1" connect="1" arrows="1" fold="1" page="1" pageScale="1" pageWidth="827" pageHeight="1169" math="0" shadow="0">
      <root>
        <mxCell id="ruHMzlKTLQpdO5moK886-0" />
        <mxCell id="ruHMzlKTLQpdO5moK886-1" parent="ruHMzlKTLQpdO5moK886-0" />
        <mxCell id="hySh9gXFmWtRHxb36pKl-0" value="" style="endArrow=block;html=1;endFill=1;" edge="1" parent="ruHMzlKTLQpdO5moK886-1">
          <mxGeometry width="50" height="50" relative="1" as="geometry">
            <mxPoint x="160" y="440" as="sourcePoint" />
            <mxPoint x="560" y="440" as="targetPoint" />
          </mxGeometry>
        </mxCell>
        <mxCell id="hySh9gXFmWtRHxb36pKl-1" value="" style="endArrow=block;html=1;endFill=1;" edge="1" parent="ruHMzlKTLQpdO5moK886-1">
          <mxGeometry width="50" height="50" relative="1" as="geometry">
            <mxPoint x="160" y="440" as="sourcePoint" />
            <mxPoint x="160" y="190" as="targetPoint" />
          </mxGeometry>
        </mxCell>
        <mxCell id="hySh9gXFmWtRHxb36pKl-2" value="&lt;font color=&quot;#cc00cc&quot;&gt;Mood&lt;/font&gt;" style="text;html=1;align=center;verticalAlign=middle;resizable=0;points=[];autosize=1;" vertex="1" parent="ruHMzlKTLQpdO5moK886-1">
          <mxGeometry x="570" y="330" width="50" height="20" as="geometry" />
        </mxCell>
        <mxCell id="hySh9gXFmWtRHxb36pKl-3" value="&lt;font color=&quot;#00cc00&quot;&gt;Symptome&lt;/font&gt;" style="text;html=1;align=center;verticalAlign=middle;resizable=0;points=[];autosize=1;" vertex="1" parent="ruHMzlKTLQpdO5moK886-1">
          <mxGeometry x="570" y="290" width="70" height="20" as="geometry" />
        </mxCell>
        <mxCell id="hySh9gXFmWtRHxb36pKl-4" value="Einheit/Menge" style="text;html=1;align=center;verticalAlign=middle;resizable=0;points=[];autosize=1;" vertex="1" parent="ruHMzlKTLQpdO5moK886-1">
          <mxGeometry x="60" y="190" width="90" height="20" as="geometry" />
        </mxCell>
        <mxCell id="hySh9gXFmWtRHxb36pKl-5" value="KW1" style="text;html=1;align=center;verticalAlign=middle;resizable=0;points=[];autosize=1;" vertex="1" parent="ruHMzlKTLQpdO5moK886-1">
          <mxGeometry x="180" y="450" width="40" height="20" as="geometry" />
        </mxCell>
        <mxCell id="hySh9gXFmWtRHxb36pKl-6" value="KW2" style="text;html=1;align=center;verticalAlign=middle;resizable=0;points=[];autosize=1;" vertex="1" parent="ruHMzlKTLQpdO5moK886-1">
          <mxGeometry x="220" y="450" width="40" height="20" as="geometry" />
        </mxCell>
        <mxCell id="hySh9gXFmWtRHxb36pKl-7" value="KW3" style="text;html=1;align=center;verticalAlign=middle;resizable=0;points=[];autosize=1;" vertex="1" parent="ruHMzlKTLQpdO5moK886-1">
          <mxGeometry x="260" y="450" width="40" height="20" as="geometry" />
        </mxCell>
        <mxCell id="hySh9gXFmWtRHxb36pKl-8" value="KW6" style="text;html=1;align=center;verticalAlign=middle;resizable=0;points=[];autosize=1;" vertex="1" parent="ruHMzlKTLQpdO5moK886-1">
          <mxGeometry x="380" y="450" width="40" height="20" as="geometry" />
        </mxCell>
        <mxCell id="hySh9gXFmWtRHxb36pKl-9" value="KW5" style="text;html=1;align=center;verticalAlign=middle;resizable=0;points=[];autosize=1;" vertex="1" parent="ruHMzlKTLQpdO5moK886-1">
          <mxGeometry x="340" y="450" width="40" height="20" as="geometry" />
        </mxCell>
        <mxCell id="hySh9gXFmWtRHxb36pKl-10" value="KW4" style="text;html=1;align=center;verticalAlign=middle;resizable=0;points=[];autosize=1;" vertex="1" parent="ruHMzlKTLQpdO5moK886-1">
          <mxGeometry x="300" y="450" width="40" height="20" as="geometry" />
        </mxCell>
        <mxCell id="hySh9gXFmWtRHxb36pKl-11" value="KW8" style="text;html=1;align=center;verticalAlign=middle;resizable=0;points=[];autosize=1;" vertex="1" parent="ruHMzlKTLQpdO5moK886-1">
          <mxGeometry x="460" y="450" width="40" height="20" as="geometry" />
        </mxCell>
        <mxCell id="hySh9gXFmWtRHxb36pKl-12" value="KW7" style="text;html=1;align=center;verticalAlign=middle;resizable=0;points=[];autosize=1;" vertex="1" parent="ruHMzlKTLQpdO5moK886-1">
          <mxGeometry x="420" y="450" width="40" height="20" as="geometry" />
        </mxCell>
        <mxCell id="hySh9gXFmWtRHxb36pKl-13" value="Zeit/Woche&amp;nbsp;" style="text;html=1;align=center;verticalAlign=middle;resizable=0;points=[];autosize=1;" vertex="1" parent="ruHMzlKTLQpdO5moK886-1">
          <mxGeometry x="540" y="450" width="80" height="20" as="geometry" />
        </mxCell>
        <mxCell id="hySh9gXFmWtRHxb36pKl-14" value="" style="curved=1;endArrow=none;html=1;endFill=0;strokeColor=#00CC00;" edge="1" parent="ruHMzlKTLQpdO5moK886-1">
          <mxGeometry width="50" height="50" relative="1" as="geometry">
            <mxPoint x="160" y="320" as="sourcePoint" />
            <mxPoint x="560" y="300" as="targetPoint" />
            <Array as="points">
              <mxPoint x="200" y="350" />
              <mxPoint x="240" y="380" />
              <mxPoint x="280" y="350" />
              <mxPoint x="320" y="260" />
              <mxPoint x="360" y="380" />
              <mxPoint x="400" y="423" />
              <mxPoint x="440" y="330" />
              <mxPoint x="480" y="390" />
              <mxPoint x="520" y="330" />
            </Array>
          </mxGeometry>
        </mxCell>
        <mxCell id="hySh9gXFmWtRHxb36pKl-15" value="" style="curved=1;endArrow=none;html=1;endFill=0;strokeColor=#FF00FF;" edge="1" parent="ruHMzlKTLQpdO5moK886-1">
          <mxGeometry width="50" height="50" relative="1" as="geometry">
            <mxPoint x="160" y="300" as="sourcePoint" />
            <mxPoint x="560" y="340" as="targetPoint" />
            <Array as="points">
              <mxPoint x="200" y="370" />
              <mxPoint x="240" y="400" />
              <mxPoint x="280" y="370" />
              <mxPoint x="320" y="210" />
              <mxPoint x="360" y="400" />
              <mxPoint x="400" y="443" />
              <mxPoint x="440" y="270" />
              <mxPoint x="480" y="420" />
              <mxPoint x="520" y="350" />
            </Array>
          </mxGeometry>
        </mxCell>
        <mxCell id="hySh9gXFmWtRHxb36pKl-16" value="gut/schwach" style="text;html=1;align=center;verticalAlign=middle;resizable=0;points=[];autosize=1;" vertex="1" parent="ruHMzlKTLQpdO5moK886-1">
          <mxGeometry x="70" y="420" width="80" height="20" as="geometry" />
        </mxCell>
        <mxCell id="hySh9gXFmWtRHxb36pKl-17" value="stark/stark" style="text;html=1;align=center;verticalAlign=middle;resizable=0;points=[];autosize=1;" vertex="1" parent="ruHMzlKTLQpdO5moK886-1">
          <mxGeometry x="85" y="220" width="70" height="20" as="geometry" />
        </mxCell>
        <mxCell id="hySh9gXFmWtRHxb36pKl-18" value="" style="endArrow=classic;startArrow=classic;html=1;exitX=0.6;exitY=-0.25;exitDx=0;exitDy=0;exitPerimeter=0;strokeColor=#CCCCCC;" edge="1" parent="ruHMzlKTLQpdO5moK886-1" source="hySh9gXFmWtRHxb36pKl-16">
          <mxGeometry width="50" height="50" relative="1" as="geometry">
            <mxPoint x="380" y="300" as="sourcePoint" />
            <mxPoint x="122" y="244" as="targetPoint" />
          </mxGeometry>
        </mxCell>
        <mxCell id="dJYBJLgtm6E7W8pohfk3-0" value="KW9" style="text;html=1;align=center;verticalAlign=middle;resizable=0;points=[];autosize=1;" vertex="1" parent="ruHMzlKTLQpdO5moK886-1">
          <mxGeometry x="500" y="450" width="40" height="20" as="geometry" />
        </mxCell>
        <mxCell id="dJYBJLgtm6E7W8pohfk3-1" value="Durchschschnitt" style="text;html=1;align=center;verticalAlign=middle;resizable=0;points=[];autosize=1;" vertex="1" parent="ruHMzlKTLQpdO5moK886-1">
          <mxGeometry x="540" y="460" width="100" height="20" as="geometry" />
        </mxCell>
      </root>
    </mxGraphModel>
  </diagram>
  <diagram name="Mood-sport" id="YVSatwrKL3KlyEmcmRzB">
    <mxGraphModel dx="786" dy="539" grid="1" gridSize="10" guides="1" tooltips="1" connect="1" arrows="1" fold="1" page="1" pageScale="1" pageWidth="827" pageHeight="1169" math="0" shadow="0">
      <root>
        <mxCell id="gOlF5CQQGiQbR5nWROI7-0" />
        <mxCell id="gOlF5CQQGiQbR5nWROI7-1" parent="gOlF5CQQGiQbR5nWROI7-0" />
        <mxCell id="gOlF5CQQGiQbR5nWROI7-2" value="" style="endArrow=block;html=1;endFill=1;" edge="1" parent="gOlF5CQQGiQbR5nWROI7-1">
          <mxGeometry width="50" height="50" relative="1" as="geometry">
            <mxPoint x="160" y="440" as="sourcePoint" />
            <mxPoint x="560" y="440" as="targetPoint" />
          </mxGeometry>
        </mxCell>
        <mxCell id="gOlF5CQQGiQbR5nWROI7-3" value="" style="endArrow=block;html=1;endFill=1;" edge="1" parent="gOlF5CQQGiQbR5nWROI7-1">
          <mxGeometry width="50" height="50" relative="1" as="geometry">
            <mxPoint x="160" y="440" as="sourcePoint" />
            <mxPoint x="160" y="190" as="targetPoint" />
          </mxGeometry>
        </mxCell>
        <mxCell id="gOlF5CQQGiQbR5nWROI7-4" value="&lt;font color=&quot;#cc00cc&quot;&gt;Mood&lt;/font&gt;" style="text;html=1;align=center;verticalAlign=middle;resizable=0;points=[];autosize=1;" vertex="1" parent="gOlF5CQQGiQbR5nWROI7-1">
          <mxGeometry x="570" y="330" width="50" height="20" as="geometry" />
        </mxCell>
        <mxCell id="gOlF5CQQGiQbR5nWROI7-5" value="&lt;font color=&quot;#00cc00&quot;&gt;Sport&lt;/font&gt;" style="text;html=1;align=center;verticalAlign=middle;resizable=0;points=[];autosize=1;" vertex="1" parent="gOlF5CQQGiQbR5nWROI7-1">
          <mxGeometry x="575" y="290" width="40" height="20" as="geometry" />
        </mxCell>
        <mxCell id="gOlF5CQQGiQbR5nWROI7-6" value="Einheit/Menge" style="text;html=1;align=center;verticalAlign=middle;resizable=0;points=[];autosize=1;" vertex="1" parent="gOlF5CQQGiQbR5nWROI7-1">
          <mxGeometry x="60" y="190" width="90" height="20" as="geometry" />
        </mxCell>
        <mxCell id="gOlF5CQQGiQbR5nWROI7-15" value="Zeit/Tag&amp;nbsp;" style="text;html=1;align=center;verticalAlign=middle;resizable=0;points=[];autosize=1;" vertex="1" parent="gOlF5CQQGiQbR5nWROI7-1">
          <mxGeometry x="550" y="450" width="60" height="20" as="geometry" />
        </mxCell>
        <mxCell id="gOlF5CQQGiQbR5nWROI7-16" value="" style="curved=1;endArrow=none;html=1;endFill=0;strokeColor=#00CC00;" edge="1" parent="gOlF5CQQGiQbR5nWROI7-1">
          <mxGeometry width="50" height="50" relative="1" as="geometry">
            <mxPoint x="160" y="323" as="sourcePoint" />
            <mxPoint x="560" y="303" as="targetPoint" />
            <Array as="points">
              <mxPoint x="200" y="353" />
              <mxPoint x="240" y="383" />
              <mxPoint x="280" y="353" />
              <mxPoint x="320" y="263" />
              <mxPoint x="360" y="383" />
              <mxPoint x="400" y="463" />
              <mxPoint x="440" y="333" />
              <mxPoint x="480" y="393" />
              <mxPoint x="520" y="333" />
            </Array>
          </mxGeometry>
        </mxCell>
        <mxCell id="gOlF5CQQGiQbR5nWROI7-17" value="" style="curved=1;endArrow=none;html=1;endFill=0;strokeColor=#FF00FF;" edge="1" parent="gOlF5CQQGiQbR5nWROI7-1">
          <mxGeometry width="50" height="50" relative="1" as="geometry">
            <mxPoint x="160" y="300" as="sourcePoint" />
            <mxPoint x="560" y="340" as="targetPoint" />
            <Array as="points">
              <mxPoint x="200" y="370" />
              <mxPoint x="240" y="400" />
              <mxPoint x="280" y="370" />
              <mxPoint x="320" y="210" />
              <mxPoint x="360" y="400" />
              <mxPoint x="400" y="450" />
              <mxPoint x="440" y="270" />
              <mxPoint x="480" y="420" />
              <mxPoint x="520" y="350" />
            </Array>
          </mxGeometry>
        </mxCell>
        <mxCell id="gOlF5CQQGiQbR5nWROI7-18" value="schlecht/wenig" style="text;html=1;align=center;verticalAlign=middle;resizable=0;points=[];autosize=1;" vertex="1" parent="gOlF5CQQGiQbR5nWROI7-1">
          <mxGeometry x="65" y="420" width="90" height="20" as="geometry" />
        </mxCell>
        <mxCell id="gOlF5CQQGiQbR5nWROI7-19" value="gut/viel" style="text;html=1;align=center;verticalAlign=middle;resizable=0;points=[];autosize=1;" vertex="1" parent="gOlF5CQQGiQbR5nWROI7-1">
          <mxGeometry x="95" y="220" width="50" height="20" as="geometry" />
        </mxCell>
        <mxCell id="gOlF5CQQGiQbR5nWROI7-20" value="" style="endArrow=classic;startArrow=classic;html=1;exitX=0.6;exitY=-0.25;exitDx=0;exitDy=0;exitPerimeter=0;strokeColor=#CCCCCC;" edge="1" parent="gOlF5CQQGiQbR5nWROI7-1" source="gOlF5CQQGiQbR5nWROI7-18">
          <mxGeometry width="50" height="50" relative="1" as="geometry">
            <mxPoint x="380" y="300" as="sourcePoint" />
            <mxPoint x="122" y="244" as="targetPoint" />
          </mxGeometry>
        </mxCell>
        <mxCell id="_1LqkYH3Rt8qq_xD_cXo-8" value="1.11." style="text;html=1;align=center;verticalAlign=middle;resizable=0;points=[];autosize=1;" vertex="1" parent="gOlF5CQQGiQbR5nWROI7-1">
          <mxGeometry x="180" y="450" width="40" height="20" as="geometry" />
        </mxCell>
        <mxCell id="_1LqkYH3Rt8qq_xD_cXo-9" value="2.11." style="text;html=1;align=center;verticalAlign=middle;resizable=0;points=[];autosize=1;" vertex="1" parent="gOlF5CQQGiQbR5nWROI7-1">
          <mxGeometry x="220" y="450" width="40" height="20" as="geometry" />
        </mxCell>
        <mxCell id="_1LqkYH3Rt8qq_xD_cXo-10" value="3.11." style="text;html=1;align=center;verticalAlign=middle;resizable=0;points=[];autosize=1;" vertex="1" parent="gOlF5CQQGiQbR5nWROI7-1">
          <mxGeometry x="260" y="450" width="40" height="20" as="geometry" />
        </mxCell>
        <mxCell id="_1LqkYH3Rt8qq_xD_cXo-11" value="6.11." style="text;html=1;align=center;verticalAlign=middle;resizable=0;points=[];autosize=1;" vertex="1" parent="gOlF5CQQGiQbR5nWROI7-1">
          <mxGeometry x="380" y="450" width="40" height="20" as="geometry" />
        </mxCell>
        <mxCell id="_1LqkYH3Rt8qq_xD_cXo-12" value="5.11." style="text;html=1;align=center;verticalAlign=middle;resizable=0;points=[];autosize=1;" vertex="1" parent="gOlF5CQQGiQbR5nWROI7-1">
          <mxGeometry x="340" y="450" width="40" height="20" as="geometry" />
        </mxCell>
        <mxCell id="_1LqkYH3Rt8qq_xD_cXo-13" value="4.11." style="text;html=1;align=center;verticalAlign=middle;resizable=0;points=[];autosize=1;" vertex="1" parent="gOlF5CQQGiQbR5nWROI7-1">
          <mxGeometry x="300" y="450" width="40" height="20" as="geometry" />
        </mxCell>
        <mxCell id="_1LqkYH3Rt8qq_xD_cXo-14" value="8.11." style="text;html=1;align=center;verticalAlign=middle;resizable=0;points=[];autosize=1;" vertex="1" parent="gOlF5CQQGiQbR5nWROI7-1">
          <mxGeometry x="460" y="450" width="40" height="20" as="geometry" />
        </mxCell>
        <mxCell id="_1LqkYH3Rt8qq_xD_cXo-15" value="7.11." style="text;html=1;align=center;verticalAlign=middle;resizable=0;points=[];autosize=1;" vertex="1" parent="gOlF5CQQGiQbR5nWROI7-1">
          <mxGeometry x="420" y="450" width="40" height="20" as="geometry" />
        </mxCell>
        <mxCell id="_1LqkYH3Rt8qq_xD_cXo-16" value="9.11." style="text;html=1;align=center;verticalAlign=middle;resizable=0;points=[];autosize=1;" vertex="1" parent="gOlF5CQQGiQbR5nWROI7-1">
          <mxGeometry x="500" y="450" width="40" height="20" as="geometry" />
        </mxCell>
      </root>
    </mxGraphModel>
  </diagram>
</mxfile>
